<svg id="Layer_1" data-name="Layer 1" xmlns="http://www.w3.org/2000/svg" viewBox="0 0 16 16"><defs><style>.cls-1{fill:#fff;}</style></defs><path class="cls-1" d="M12,7.17a.91.91,0,0,0-.71.34,1.53,1.53,0,0,0-.36.84h2C13,7.57,12.64,7.17,12,7.17Z"/><path class="cls-1" d="M5.33,5.34h0A2.76,2.76,0,0,1,5.15,6L4.32,8.62h2L5.46,6A4,4,0,0,1,5.33,5.34Z"/><path class="cls-1" d="M14,0H2A2,2,0,0,0,0,2V14a2,2,0,0,0,2,2H14a2,2,0,0,0,2-2V2A2,2,0,0,0,14,0ZM7.23,11.66,6.69,10H4L3.4,11.66H1.52L4.33,4H6.38l2.74,7.7Zm7.3-2.26H10.94c.06.79.56,1.19,1.51,1.19a2.93,2.93,0,0,0,1.6-.43v1.23a4.23,4.23,0,0,1-2,.41A2.79,2.79,0,0,1,10,11.06,2.79,2.79,0,0,1,9.26,9a3,3,0,0,1,.8-2.17A2.62,2.62,0,0,1,12,6a2.43,2.43,0,0,1,1.86.71,2.75,2.75,0,0,1,.66,1.94Z"/></svg>