<svg id="Layer_1" data-name="Layer 1" xmlns="http://www.w3.org/2000/svg" viewBox="0 0 16 16"><defs><style>.cls-1{fill:#fff;}</style></defs><path class="cls-1" d="M6.76,5.93h0a2.74,2.74,0,0,1-.14.68L5.75,9.22h2L6.89,6.63A4,4,0,0,1,6.76,5.93Z"/><path class="cls-1" d="M14,0H2A2,2,0,0,0,0,2V14a2,2,0,0,0,2,2H14a2,2,0,0,0,2-2V2A2,2,0,0,0,14,0ZM8.66,12.26l-.54-1.71H5.38l-.55,1.71H3l2.81-7.7H7.81l2.74,7.7Zm4.06,0H11V6.76h1.7Zm-.14-6.62a1,1,0,0,1-.7.25,1,1,0,0,1-.71-.25A.83.83,0,0,1,10.9,5a.8.8,0,0,1,.27-.62,1.05,1.05,0,0,1,.71-.24,1,1,0,0,1,.7.24.84.84,0,0,1,0,1.25Z"/></svg>