<svg id="Layer_1" data-name="Layer 1" xmlns="http://www.w3.org/2000/svg" viewBox="0 0 16 16"><defs><style>.cls-1{fill:#fff;}</style></defs><path class="cls-1" d="M5.93,5.29H5.25v2.4h.68c.93,0,1.39-.4,1.39-1.21S6.86,5.29,5.93,5.29Z"/><path class="cls-1" d="M14,0H2A2,2,0,0,0,0,2V14a2,2,0,0,0,2,2H14a2,2,0,0,0,2-2V2A2,2,0,0,0,14,0ZM8.31,8.29A3.3,3.3,0,0,1,6.08,9H5.25v2.65H3.52V4H6.23c1.95,0,2.92.82,2.92,2.45A2.35,2.35,0,0,1,8.31,8.29Zm5-.6a1.46,1.46,0,0,0-.71-.16,1,1,0,0,0-.86.4A1.77,1.77,0,0,0,11.47,9v2.62H9.78V6.16h1.69v1h0A1.46,1.46,0,0,1,13,6.07a1.15,1.15,0,0,1,.41.06Z"/></svg>