<svg id="Layer_1" data-name="Layer 1" xmlns="http://www.w3.org/2000/svg" viewBox="0 0 16 16"><defs><style>.cls-1{fill:#fff;}</style></defs><path class="cls-1" d="M5.8,5.89H5.11v2.4H5.8c.92,0,1.38-.4,1.38-1.21S6.72,5.89,5.8,5.89Z"/><path class="cls-1" d="M14,0H2A2,2,0,0,0,0,2V14a2,2,0,0,0,2,2H14a2,2,0,0,0,2-2V2A2,2,0,0,0,14,0ZM8.17,8.89a3.29,3.29,0,0,1-2.23.72H5.11v2.65H3.38V4.56H6.1C8,4.56,9,5.38,9,7A2.35,2.35,0,0,1,8.17,8.89Zm5.12,2.53a1.67,1.67,0,0,1-.56.56,2.64,2.64,0,0,1-.81.32,5,5,0,0,1-1,.1,5.1,5.1,0,0,1-1.68-.28V10.74a3.47,3.47,0,0,0,.84.38,2.8,2.8,0,0,0,.78.12,1.71,1.71,0,0,0,.71-.12.39.39,0,0,0,.26-.38.39.39,0,0,0-.11-.27,1,1,0,0,0-.31-.18,2.37,2.37,0,0,0-.4-.15L10.62,10a3.81,3.81,0,0,1-.57-.27,1.58,1.58,0,0,1-.42-.33A1.22,1.22,0,0,1,9.37,9a1.68,1.68,0,0,1-.09-.58,1.58,1.58,0,0,1,.2-.8A1.64,1.64,0,0,1,10,7a2.31,2.31,0,0,1,.77-.31,3.82,3.82,0,0,1,.9-.1,6.27,6.27,0,0,1,.74,0,6.58,6.58,0,0,1,.74.17V8.16a2.57,2.57,0,0,0-.69-.28,2.66,2.66,0,0,0-.72-.1,1.66,1.66,0,0,0-.32,0,1,1,0,0,0-.26.09A.62.62,0,0,0,11,8a.36.36,0,0,0-.06.2.35.35,0,0,0,.1.26.72.72,0,0,0,.25.19,2.32,2.32,0,0,0,.35.14L12,9a6.1,6.1,0,0,1,.62.26,1.8,1.8,0,0,1,.47.33,1.32,1.32,0,0,1,.3.44,1.81,1.81,0,0,1-.11,1.44Z"/></svg>