<svg id="Layer_1" data-name="Layer 1" xmlns="http://www.w3.org/2000/svg" viewBox="0 0 16 16"><defs><style>.cls-1{fill:#fff;}</style></defs><path class="cls-1" d="M11.51,8a1,1,0,0,0-.88.44,2.08,2.08,0,0,0-.32,1.22,1.73,1.73,0,0,0,.31,1.11,1,1,0,0,0,.84.4,1,1,0,0,0,.84-.42,1.69,1.69,0,0,0,.33-1.09V9.27a1.31,1.31,0,0,0-.31-.89A1.05,1.05,0,0,0,11.51,8Z"/><path class="cls-1" d="M14,0H2A2,2,0,0,0,0,2V14a2,2,0,0,0,2,2H14a2,2,0,0,0,2-2V2A2,2,0,0,0,14,0ZM6.43,12.36,5.11,9.85A2.37,2.37,0,0,1,5,9.34h0a2.76,2.76,0,0,1-.18.54L3.42,12.36H1.35L3.81,8.51,1.56,4.66H3.67L4.77,7A3.71,3.71,0,0,1,5,7.62H5A6.62,6.62,0,0,1,5.27,7L6.49,4.66H8.43L6.12,8.48l2.37,3.88Zm7.86,0H12.6V11.6h0a1.91,1.91,0,0,1-1.71.9,2.12,2.12,0,0,1-1.66-.73,3,3,0,0,1-.62-2,3.3,3.3,0,0,1,.69-2.19,2.24,2.24,0,0,1,1.81-.82,1.55,1.55,0,0,1,1.49.76h0V4.22h1.69Z"/></svg>