<svg xmlns="http://www.w3.org/2000/svg" width="486.775" height="110.262" viewBox="0 0 486.775 110.262">
  <g id="그룹_167879" data-name="그룹 167879" transform="translate(-312.999 -284.738)">
    <path id="Icon_awesome-twitter" data-name="Icon awesome-twitter" d="M48.045,14.22c.034.476.034.951.034,1.427,0,14.509-11.043,31.226-31.226,31.226A31.014,31.014,0,0,1,0,41.946a22.7,22.7,0,0,0,2.65.136,21.98,21.98,0,0,0,13.625-4.689A10.994,10.994,0,0,1,6.014,29.782a13.84,13.84,0,0,0,2.073.17,11.607,11.607,0,0,0,2.888-.374,10.976,10.976,0,0,1-8.8-10.771v-.136a11.053,11.053,0,0,0,4.961,1.393,10.991,10.991,0,0,1-3.4-14.679A31.2,31.2,0,0,0,26.367,16.87a12.389,12.389,0,0,1-.272-2.514A10.985,10.985,0,0,1,45.089,6.847,21.608,21.608,0,0,0,52.055,4.2a10.945,10.945,0,0,1-4.825,6.048,22,22,0,0,0,6.32-1.7,23.592,23.592,0,0,1-5.5,5.674Z" transform="translate(702.921 281.357)" fill="#242424"/>
    <path id="Icon_awesome-twitter-2" data-name="Icon awesome-twitter" d="M48.045,14.22c.034.476.034.951.034,1.427,0,14.509-11.043,31.226-31.226,31.226A31.014,31.014,0,0,1,0,41.946a22.7,22.7,0,0,0,2.65.136,21.98,21.98,0,0,0,13.625-4.689A10.994,10.994,0,0,1,6.014,29.782a13.84,13.84,0,0,0,2.073.17,11.607,11.607,0,0,0,2.888-.374,10.976,10.976,0,0,1-8.8-10.771v-.136a11.053,11.053,0,0,0,4.961,1.393,10.991,10.991,0,0,1-3.4-14.679A31.2,31.2,0,0,0,26.367,16.87a12.389,12.389,0,0,1-.272-2.514A10.985,10.985,0,0,1,45.089,6.847,21.608,21.608,0,0,0,52.055,4.2a10.945,10.945,0,0,1-4.825,6.048,22,22,0,0,0,6.32-1.7,23.592,23.592,0,0,1-5.5,5.674Z" transform="translate(702.921 337.357)" fill="#cc1424"/>
    <path id="Icon_awesome-linkedin" data-name="Icon awesome-linkedin" d="M39.281,2.25H3.012A3.035,3.035,0,0,0,0,5.3V41.5a3.035,3.035,0,0,0,3.012,3.05H39.281A3.043,3.043,0,0,0,42.3,41.5V5.3A3.043,3.043,0,0,0,39.281,2.25Zm-26.5,36.26H6.515V18.321h6.279V38.51ZM9.65,15.564a3.635,3.635,0,1,1,3.635-3.635A3.637,3.637,0,0,1,9.65,15.564ZM36.288,38.51h-6.27v-9.82c0-2.342-.047-5.354-3.258-5.354-3.267,0-3.768,2.55-3.768,5.184v9.99h-6.27V18.321h6.015v2.757h.085a6.6,6.6,0,0,1,5.939-3.258c6.345,0,7.526,4.183,7.526,9.622Z" transform="translate(757.471 282.488)" fill="#242424"/>
    <path id="Icon_awesome-linkedin-2" data-name="Icon awesome-linkedin" d="M39.281,2.25H3.012A3.035,3.035,0,0,0,0,5.3V41.5a3.035,3.035,0,0,0,3.012,3.05H39.281A3.043,3.043,0,0,0,42.3,41.5V5.3A3.043,3.043,0,0,0,39.281,2.25Zm-26.5,36.26H6.515V18.321h6.279V38.51ZM9.65,15.564a3.635,3.635,0,1,1,3.635-3.635A3.637,3.637,0,0,1,9.65,15.564ZM36.288,38.51h-6.27v-9.82c0-2.342-.047-5.354-3.258-5.354-3.267,0-3.768,2.55-3.768,5.184v9.99h-6.27V18.321h6.015v2.757h.085a6.6,6.6,0,0,1,5.939-3.258c6.345,0,7.526,4.183,7.526,9.622Z" transform="translate(757.471 339.488)" fill="#cc1424"/>
    <path id="Icon_awesome-instagram" data-name="Icon awesome-instagram" d="M21.32,12.623a10.93,10.93,0,1,0,10.93,10.93A10.913,10.913,0,0,0,21.32,12.623Zm0,18.036a7.106,7.106,0,1,1,7.106-7.106A7.119,7.119,0,0,1,21.32,30.659ZM35.247,12.176A2.549,2.549,0,1,1,32.7,9.627,2.543,2.543,0,0,1,35.247,12.176Zm7.239,2.587c-.162-3.415-.942-6.44-3.444-8.932S33.525,2.559,30.11,2.388c-3.52-.2-14.069-.2-17.589,0-3.406.162-6.431.942-8.932,3.434S.316,11.339.145,14.754c-.2,3.52-.2,14.069,0,17.589.162,3.415.942,6.44,3.444,8.932s5.517,3.272,8.932,3.444c3.52.2,14.069.2,17.589,0,3.415-.162,6.44-.942,8.932-3.444s3.272-5.517,3.444-8.932c.2-3.52.2-14.06,0-17.58ZM37.939,36.12a7.194,7.194,0,0,1-4.052,4.052c-2.806,1.113-9.465.856-12.566.856s-9.77.247-12.566-.856A7.194,7.194,0,0,1,4.7,36.12c-1.113-2.806-.856-9.465-.856-12.566S3.6,13.784,4.7,10.987A7.194,7.194,0,0,1,8.754,6.935c2.806-1.113,9.465-.856,12.566-.856s9.77-.247,12.566.856a7.194,7.194,0,0,1,4.052,4.052c1.113,2.806.856,9.465.856,12.566S39.052,33.323,37.939,36.12Z" transform="translate(405.666 282.5)" fill="#242424"/>
    <path id="Icon_awesome-instagram-2" data-name="Icon awesome-instagram" d="M21.32,12.623a10.93,10.93,0,1,0,10.93,10.93A10.913,10.913,0,0,0,21.32,12.623Zm0,18.036a7.106,7.106,0,1,1,7.106-7.106A7.119,7.119,0,0,1,21.32,30.659ZM35.247,12.176A2.549,2.549,0,1,1,32.7,9.627,2.543,2.543,0,0,1,35.247,12.176Zm7.239,2.587c-.162-3.415-.942-6.44-3.444-8.932S33.525,2.559,30.11,2.388c-3.52-.2-14.069-.2-17.589,0-3.406.162-6.431.942-8.932,3.434S.316,11.339.145,14.754c-.2,3.52-.2,14.069,0,17.589.162,3.415.942,6.44,3.444,8.932s5.517,3.272,8.932,3.444c3.52.2,14.069.2,17.589,0,3.415-.162,6.44-.942,8.932-3.444s3.272-5.517,3.444-8.932c.2-3.52.2-14.06,0-17.58ZM37.939,36.12a7.194,7.194,0,0,1-4.052,4.052c-2.806,1.113-9.465.856-12.566.856s-9.77.247-12.566-.856A7.194,7.194,0,0,1,4.7,36.12c-1.113-2.806-.856-9.465-.856-12.566S3.6,13.784,4.7,10.987A7.194,7.194,0,0,1,8.754,6.935c2.806-1.113,9.465-.856,12.566-.856s9.77-.247,12.566.856a7.194,7.194,0,0,1,4.052,4.052c1.113,2.806.856,9.465.856,12.566S39.052,33.323,37.939,36.12Z" transform="translate(405.666 338.5)" fill="#cc1424"/>
    <path id="Icon_awesome-youtube" data-name="Icon awesome-youtube" d="M47.81,9.754A6,6,0,0,0,43.587,5.5c-3.724-1-18.659-1-18.659-1S9.995,4.5,6.27,5.5a6,6,0,0,0-4.222,4.25c-1,3.749-1,11.57-1,11.57s0,7.821,1,11.57A5.911,5.911,0,0,0,6.27,37.075c3.724,1,18.659,1,18.659,1s14.934,0,18.659-1a5.911,5.911,0,0,0,4.222-4.182c1-3.749,1-11.57,1-11.57s0-7.821-1-11.57ZM20.044,28.425v-14.2l12.482,7.1-12.482,7.1Z" transform="translate(311.949 280.238)" fill="#242424"/>
    <path id="Icon_awesome-youtube-2" data-name="Icon awesome-youtube" d="M47.81,9.754A6,6,0,0,0,43.587,5.5c-3.724-1-18.659-1-18.659-1S9.995,4.5,6.27,5.5a6,6,0,0,0-4.222,4.25c-1,3.749-1,11.57-1,11.57s0,7.821,1,11.57A5.911,5.911,0,0,0,6.27,37.075c3.724,1,18.659,1,18.659,1s14.934,0,18.659-1a5.911,5.911,0,0,0,4.222-4.182c1-3.749,1-11.57,1-11.57s0-7.821-1-11.57ZM20.044,28.425v-14.2l12.482,7.1-12.482,7.1Z" transform="translate(311.949 336.238)" fill="#cc1424"/>
    <g id="icon_naver_post" transform="translate(500.591 284.738)">
      <g id="그룹_167875" data-name="그룹 167875" transform="translate(0 0)">
        <path id="빼기_60" data-name="빼기 60" d="M36.2,31.9H0V0H36.2V31.9ZM15.8,15.2l0,0,5.979,8.588h4.952V7.745H21.538v8.591L15.559,7.745H10.6V23.794h5.2V15.2Z" fill="#242424"/>
        <path id="패스_86235" data-name="패스 86235" d="M193.7,433.739l7.354-7.442H166.686l7.541,7.442Z" transform="translate(-165.77 -391.085)" fill="#242424"/>
        <path id="패스_86236" data-name="패스 86236" d="M174.9,434.319l7.2,7.033,7.2-7.033Z" transform="translate(-164 -388.359)" fill="#242424"/>
      </g>
    </g>
    <g id="icon_naver_post-2" data-name="icon_naver_post" transform="translate(500.591 342)">
      <g id="그룹_167875-2" data-name="그룹 167875" transform="translate(0 0)">
        <path id="빼기_60-2" data-name="빼기 60" d="M36.2,31.9H0V0H36.2V31.9ZM15.8,15.2l0,0,5.979,8.588h4.952V7.745H21.538v8.591L15.559,7.745H10.6V23.794h5.2V15.2Z" fill="#cc1424"/>
        <path id="패스_86235-2" data-name="패스 86235" d="M193.7,433.739l7.354-7.442H166.686l7.541,7.442Z" transform="translate(-165.77 -391.085)" fill="#cc1424"/>
        <path id="패스_86236-2" data-name="패스 86236" d="M174.9,434.319l7.2,7.033,7.2-7.033Z" transform="translate(-164 -388.359)" fill="#cc1424"/>
      </g>
    </g>
    <g id="그룹_167873" data-name="그룹 167873" transform="translate(647.656 284.738)">
      <path id="패스_86216" data-name="패스 86216" d="M27.131,0A27.131,27.131,0,0,1,46.315,46.315,27.131,27.131,0,1,1,7.946,7.946,26.953,26.953,0,0,1,27.131,0Zm0,53.145A26.014,26.014,0,1,0,1.116,27.131,26.044,26.044,0,0,0,27.131,53.145Z" transform="translate(0 0)" fill="#242424"/>
      <path id="패스_86225" data-name="패스 86225" d="M14.787,31.224H11.244V45.4h7.795V41.853H14.787Z" transform="translate(-0.942 -3.208)" fill="#242424"/>
      <path id="패스_86226" data-name="패스 86226" d="M0,0H3.543V14.172H0Z" transform="translate(19.159 28.015)" fill="#242424"/>
      <path id="패스_86227" data-name="패스 86227" d="M33.035,39.727l-2.657-8.5H26.835L31.264,45.4h3.543l4.429-14.172H35.692Z" transform="translate(-2.716 -3.208)" fill="#242424"/>
      <path id="패스_86228" data-name="패스 86228" d="M50.021,34.767V31.224H42.227V45.4h7.795V41.853H45.77V40.082h4.251V36.538H45.77V34.767Z" transform="translate(-4.467 -3.208)" fill="#242424"/>
      <path id="패스_86229" data-name="패스 86229" d="M36,18.819a.906.906,0,0,0-.314-.78,1.628,1.628,0,0,0-.962-.23H33.676v2.043h1Q36,19.851,36,18.819" transform="translate(-3.494 -1.687)" fill="#242424"/>
      <path id="패스_86230" data-name="패스 86230" d="M25.837,17.759a1.63,1.63,0,0,0-1.391.64,2.875,2.875,0,0,0-.479,1.758v.377q0,2.528,1.9,2.527a1.669,1.669,0,0,0,1.418-.64,2.848,2.848,0,0,0,.485-1.759V20.3a3.209,3.209,0,0,0-.462-1.893,1.726,1.726,0,0,0-1.476-.645" transform="translate(-2.389 -1.68)" fill="#242424"/>
      <path id="패스_86231" data-name="패스 86231" d="M34.827,21.18H33.676v2.226h1.208q1.379,0,1.379-1.14,0-1.085-1.436-1.086" transform="translate(-3.494 -2.069)" fill="#242424"/>
      <path id="패스_86232" data-name="패스 86232" d="M26.774.2A26.572,26.572,0,0,0,.216,25.93H53.332A26.572,26.572,0,0,0,26.774.2M18.053,22.11h-1.6V16.593h-.034L14.566,22.11H13.3l-1.835-5.528h-.035V22.11h-1.4V14.733h2.245l1.777,5.248h.035l1.755-5.248h2.21Zm8.718-3.581a3.617,3.617,0,1,1-7.213.021V18.3a3.6,3.6,0,0,1,1-2.731,3.652,3.652,0,0,1,2.632-.957,3.318,3.318,0,0,1,3.579,3.678Zm6.655,3a3.157,3.157,0,0,1-2.063.581h-3.1V14.733h2.928q2.61,0,2.61,1.86a1.6,1.6,0,0,1-1.3,1.624v.033A1.655,1.655,0,0,1,34.12,20a1.9,1.9,0,0,1-.695,1.527m3.84.581h-1.63V14.733h1.63Zm6.09-.484a3.29,3.29,0,0,1-2.148.6,5.47,5.47,0,0,1-2.393-.451V20.6a5.942,5.942,0,0,0,2.245.452q1.425,0,1.424-.968a.82.82,0,0,0-.233-.64,2.076,2.076,0,0,0-.861-.36l-.706-.172a2.782,2.782,0,0,1-1.384-.71,2.029,2.029,0,0,1-.462-1.452,1.942,1.942,0,0,1,.683-1.559,3.01,3.01,0,0,1,1.994-.581,5.032,5.032,0,0,1,2.143.4v1.151a6.669,6.669,0,0,0-2.04-.376q-1.231,0-1.23.86a.755.755,0,0,0,.216.586,1.835,1.835,0,0,0,.775.339l.684.172a3.328,3.328,0,0,1,1.527.737,1.94,1.94,0,0,1,.489,1.447,2.089,2.089,0,0,1-.723,1.7" transform="translate(0.312 0.314)" fill="#242424"/>
    </g>
    <g id="그룹_167877" data-name="그룹 167877" transform="translate(647.66 340.738)">
      <path id="패스_86216-2" data-name="패스 86216" d="M27.131,0A27.131,27.131,0,0,1,46.315,46.315,27.131,27.131,0,1,1,7.946,7.946,26.953,26.953,0,0,1,27.131,0Zm0,53.145A26.014,26.014,0,1,0,1.116,27.131,26.044,26.044,0,0,0,27.131,53.145Z" transform="translate(0 0)" fill="#cc1424"/>
      <path id="패스_86225-2" data-name="패스 86225" d="M14.787,31.224H11.244V45.4h7.795V41.853H14.787Z" transform="translate(-0.942 -3.208)" fill="#cc1424"/>
      <path id="패스_86226-2" data-name="패스 86226" d="M0,0H3.543V14.172H0Z" transform="translate(19.159 28.015)" fill="#cc1424"/>
      <path id="패스_86227-2" data-name="패스 86227" d="M33.035,39.727l-2.657-8.5H26.835L31.264,45.4h3.543l4.429-14.172H35.692Z" transform="translate(-2.716 -3.208)" fill="#cc1424"/>
      <path id="패스_86228-2" data-name="패스 86228" d="M50.021,34.767V31.224H42.227V45.4h7.795V41.853H45.77V40.082h4.251V36.538H45.77V34.767Z" transform="translate(-4.467 -3.208)" fill="#cc1424"/>
      <path id="패스_86229-2" data-name="패스 86229" d="M36,18.819a.906.906,0,0,0-.314-.78,1.628,1.628,0,0,0-.962-.23H33.676v2.043h1Q36,19.851,36,18.819" transform="translate(-3.494 -1.687)" fill="#cc1424"/>
      <path id="패스_86230-2" data-name="패스 86230" d="M25.837,17.759a1.63,1.63,0,0,0-1.391.64,2.875,2.875,0,0,0-.479,1.758v.377q0,2.528,1.9,2.527a1.669,1.669,0,0,0,1.418-.64,2.848,2.848,0,0,0,.485-1.759V20.3a3.209,3.209,0,0,0-.462-1.893,1.726,1.726,0,0,0-1.476-.645" transform="translate(-2.389 -1.68)" fill="#cc1424"/>
      <path id="패스_86231-2" data-name="패스 86231" d="M34.827,21.18H33.676v2.226h1.208q1.379,0,1.379-1.14,0-1.085-1.436-1.086" transform="translate(-3.494 -2.069)" fill="#cc1424"/>
      <path id="패스_86232-2" data-name="패스 86232" d="M26.774.2A26.572,26.572,0,0,0,.216,25.93H53.332A26.572,26.572,0,0,0,26.774.2M18.053,22.11h-1.6V16.593h-.034L14.566,22.11H13.3l-1.835-5.528h-.035V22.11h-1.4V14.733h2.245l1.777,5.248h.035l1.755-5.248h2.21Zm8.718-3.581a3.617,3.617,0,1,1-7.213.021V18.3a3.6,3.6,0,0,1,1-2.731,3.652,3.652,0,0,1,2.632-.957,3.318,3.318,0,0,1,3.579,3.678Zm6.655,3a3.157,3.157,0,0,1-2.063.581h-3.1V14.733h2.928q2.61,0,2.61,1.86a1.6,1.6,0,0,1-1.3,1.624v.033A1.655,1.655,0,0,1,34.12,20a1.9,1.9,0,0,1-.695,1.527m3.84.581h-1.63V14.733h1.63Zm6.09-.484a3.29,3.29,0,0,1-2.148.6,5.47,5.47,0,0,1-2.393-.451V20.6a5.942,5.942,0,0,0,2.245.452q1.425,0,1.424-.968a.82.82,0,0,0-.233-.64,2.076,2.076,0,0,0-.861-.36l-.706-.172a2.782,2.782,0,0,1-1.384-.71,2.029,2.029,0,0,1-.462-1.452,1.942,1.942,0,0,1,.683-1.559,3.01,3.01,0,0,1,1.994-.581,5.032,5.032,0,0,1,2.143.4v1.151a6.669,6.669,0,0,0-2.04-.376q-1.231,0-1.23.86a.755.755,0,0,0,.216.586,1.835,1.835,0,0,0,.775.339l.684.172a3.328,3.328,0,0,1,1.527.737,1.94,1.94,0,0,1,.489,1.447,2.089,2.089,0,0,1-.723,1.7" transform="translate(0.312 0.314)" fill="#cc1424"/>
    </g>
    <g id="그룹_167874" data-name="그룹 167874" transform="translate(595.636 284.738)">
      <path id="패스_86233" data-name="패스 86233" d="M25.509,0C11.42,0,0,10.562,0,23.593,0,33.217,4.031,37.812,9.552,42l.026.012V53.306a.648.648,0,0,0,1.036.52l9.672-7.184.209.09a27.6,27.6,0,0,0,5.014.457c14.088,0,25.507-10.564,25.507-23.595S39.6,0,25.509,0M16.958,29.572a5.33,5.33,0,0,0,5.283-3.809h3.7a8.849,8.849,0,0,1-8.98,7.367,9.379,9.379,0,0,1-9.612-9.563A9.38,9.38,0,0,1,16.958,14a8.859,8.859,0,0,1,9.007,7.5H22.278a5.261,5.261,0,0,0-5.32-4,5.774,5.774,0,0,0-6,6.056,5.921,5.921,0,0,0,6,6.006m24.369,3.192H37.938V25.118a2.434,2.434,0,0,0-2.6-2.707c-1.761,0-2.89,1.077-2.89,3.257v7.095H29.056v-18.7h3.391V21.1a4.345,4.345,0,0,1,3.914-1.838A4.651,4.651,0,0,1,39.907,20.7a5.452,5.452,0,0,1,1.42,3.993Z" transform="translate(0)" fill="#242424"/>
    </g>
    <g id="그룹_167878" data-name="그룹 167878" transform="translate(595.64 340.738)">
      <path id="패스_86233-2" data-name="패스 86233" d="M25.509,0C11.42,0,0,10.562,0,23.593,0,33.217,4.031,37.812,9.552,42l.026.012V53.306a.648.648,0,0,0,1.036.52l9.672-7.184.209.09a27.6,27.6,0,0,0,5.014.457c14.088,0,25.507-10.564,25.507-23.595S39.6,0,25.509,0M16.958,29.572a5.33,5.33,0,0,0,5.283-3.809h3.7a8.849,8.849,0,0,1-8.98,7.367,9.379,9.379,0,0,1-9.612-9.563A9.38,9.38,0,0,1,16.958,14a8.859,8.859,0,0,1,9.007,7.5H22.278a5.261,5.261,0,0,0-5.32-4,5.774,5.774,0,0,0-6,6.056,5.921,5.921,0,0,0,6,6.006m24.369,3.192H37.938V25.118a2.434,2.434,0,0,0-2.6-2.707c-1.761,0-2.89,1.077-2.89,3.257v7.095H29.056v-18.7h3.391V21.1a4.345,4.345,0,0,1,3.914-1.838A4.651,4.651,0,0,1,39.907,20.7a5.452,5.452,0,0,1,1.42,3.993Z" transform="translate(0)" fill="#cc1424"/>
    </g>
    <g id="icon_naver_blog" transform="translate(449.302 284.738)">
      <g id="그룹_167876" data-name="그룹 167876" transform="translate(0 0)">
        <path id="패스_86237" data-name="패스 86237" d="M186.376,167.822a1.732,1.732,0,1,0,1.732,1.732A1.732,1.732,0,0,0,186.376,167.822Z" transform="translate(-175.402 -150.609)" fill="#242424"/>
        <ellipse id="타원_9887" data-name="타원 9887" cx="1.865" cy="1.865" rx="1.865" ry="1.865" transform="translate(26.214 17.032)" fill="#242424"/>
        <path id="패스_86238" data-name="패스 86238" d="M200.944,117.055H164.109a6.727,6.727,0,0,0-6.727,6.727v21.862a6.728,6.728,0,0,0,6.727,6.728h13.01l4.425,10.425s.3.9,1.042.9h0c.737,0,1.042-.9,1.042-.9l4.425-10.425h12.89a6.728,6.728,0,0,0,6.727-6.728V123.782A6.727,6.727,0,0,0,200.944,117.055ZM173.182,136.38c-.021,4-4.153,4.111-4.153,4.111a3.453,3.453,0,0,1-2.5-1.06v.72h-3.009v-12.41c-.013,0-.014,0,0-.007v.007c.186.03,3.009-.007,3.009-.007v4.747c.708-1.207,2.755-1.187,2.755-1.187C173.738,131.71,173.182,136.38,173.182,136.38Zm5.3-4.7v8.5h-2.945v-8.412c0-1.144-1.419-1.462-1.419-1.462v-2.967C178.818,127.523,178.479,131.676,178.479,131.676Zm6.982,8.82a4.561,4.561,0,1,1,4.937-4.545A4.753,4.753,0,0,1,185.46,140.5Zm16.136,0s.042,4.318-4.344,4.318h-1.335v-2.8h.805s1.843.169,1.822-2.67c0,0-.36,1.149-2.946,1.149,0,0-3.665-.264-3.665-3.841V135.3a4.188,4.188,0,0,1,4.111-4,3,3,0,0,1,2.564,1.144v-.911H201.6Z" transform="translate(-157.382 -117.055)" fill="#242424"/>
        <ellipse id="타원_9888" data-name="타원 9888" cx="1.822" cy="1.822" rx="1.822" ry="1.822" transform="translate(37.708 17.075)" fill="#242424"/>
      </g>
    </g>
    <g id="icon_naver_blog-2" data-name="icon_naver_blog" transform="translate(449.302 340.738)">
      <g id="그룹_167876-2" data-name="그룹 167876" transform="translate(0 0)">
        <path id="패스_86237-2" data-name="패스 86237" d="M186.376,167.822a1.732,1.732,0,1,0,1.732,1.732A1.732,1.732,0,0,0,186.376,167.822Z" transform="translate(-175.402 -150.609)" fill="#cc1424"/>
        <ellipse id="타원_9887-2" data-name="타원 9887" cx="1.865" cy="1.865" rx="1.865" ry="1.865" transform="translate(26.214 17.032)" fill="#cc1424"/>
        <path id="패스_86238-2" data-name="패스 86238" d="M200.944,117.055H164.109a6.727,6.727,0,0,0-6.727,6.727v21.862a6.728,6.728,0,0,0,6.727,6.728h13.01l4.425,10.425s.3.9,1.042.9h0c.737,0,1.042-.9,1.042-.9l4.425-10.425h12.89a6.728,6.728,0,0,0,6.727-6.728V123.782A6.727,6.727,0,0,0,200.944,117.055ZM173.182,136.38c-.021,4-4.153,4.111-4.153,4.111a3.453,3.453,0,0,1-2.5-1.06v.72h-3.009v-12.41c-.013,0-.014,0,0-.007v.007c.186.03,3.009-.007,3.009-.007v4.747c.708-1.207,2.755-1.187,2.755-1.187C173.738,131.71,173.182,136.38,173.182,136.38Zm5.3-4.7v8.5h-2.945v-8.412c0-1.144-1.419-1.462-1.419-1.462v-2.967C178.818,127.523,178.479,131.676,178.479,131.676Zm6.982,8.82a4.561,4.561,0,1,1,4.937-4.545A4.753,4.753,0,0,1,185.46,140.5Zm16.136,0s.042,4.318-4.344,4.318h-1.335v-2.8h.805s1.843.169,1.822-2.67c0,0-.36,1.149-2.946,1.149,0,0-3.665-.264-3.665-3.841V135.3a4.188,4.188,0,0,1,4.111-4,3,3,0,0,1,2.564,1.144v-.911H201.6Z" transform="translate(-157.382 -117.055)" fill="#cc1424"/>
        <ellipse id="타원_9888-2" data-name="타원 9888" cx="1.822" cy="1.822" rx="1.822" ry="1.822" transform="translate(37.708 17.075)" fill="#cc1424"/>
      </g>
    </g>
    <g id="icon_facebook" transform="translate(361.757 284.738)">
      <path id="Icon_metro-facebook" data-name="Icon metro-facebook" d="M38.325,1.928H9.721A7.151,7.151,0,0,0,2.571,9.08v28.6a7.151,7.151,0,0,0,7.15,7.152h14.3V26.063H18.66V20.7h5.363V16.677a6.7,6.7,0,0,1,6.7-6.7h6.7v5.363h-6.7a1.341,1.341,0,0,0-1.341,1.341V20.7H36.76L35.42,26.063H29.386V44.835h8.939a7.151,7.151,0,0,0,7.15-7.152V9.08a7.151,7.151,0,0,0-7.15-7.152Z" transform="translate(-2.571 -1.928)" fill="#242424"/>
    </g>
    <g id="icon_facebook-2" data-name="icon_facebook" transform="translate(361.757 340.738)">
      <path id="Icon_metro-facebook-2" data-name="Icon metro-facebook" d="M38.325,1.928H9.721A7.151,7.151,0,0,0,2.571,9.08v28.6a7.151,7.151,0,0,0,7.15,7.152h14.3V26.063H18.66V20.7h5.363V16.677a6.7,6.7,0,0,1,6.7-6.7h6.7v5.363h-6.7a1.341,1.341,0,0,0-1.341,1.341V20.7H36.76L35.42,26.063H29.386V44.835h8.939a7.151,7.151,0,0,0,7.15-7.152V9.08a7.151,7.151,0,0,0-7.15-7.152Z" transform="translate(-2.571 -1.928)" fill="#cc1424"/>
    </g>
    <g id="icon_webzine_look" transform="translate(537.793 284.738)">
      <g id="그룹_1158" data-name="그룹 1158" transform="translate(0 0)">
        <rect id="사각형_148174" data-name="사각형 148174" width="1.838" height="22.06" transform="translate(0.49 2.282)" fill="#242424"/>
        <path id="사각형_148174_-_윤곽선" data-name="사각형 148174 - 윤곽선" d="M-.25-.25H2.567V22.788H-.25ZM1.588.729H.729V21.81h.86Z" transform="translate(0.25 2.043)" fill="#242424"/>
        <rect id="사각형_148175" data-name="사각형 148175" width="1.838" height="22.06" transform="translate(40.932 2.282)" fill="#242424"/>
        <path id="사각형_148175_-_윤곽선" data-name="사각형 148175 - 윤곽선" d="M-.25-.25H2.567V22.788H-.25ZM1.588.729H.729V21.81h.86Z" transform="translate(40.693 2.043)" fill="#242424"/>
        <rect id="사각형_148176" data-name="사각형 148176" width="1.838" height="12.868" transform="translate(13.357 22.504) rotate(90)" fill="#242424"/>
        <path id="사각형_148176_-_윤곽선" data-name="사각형 148176 - 윤곽선" d="M0,0H2.817V13.847H0ZM1.838.979H.979V12.868h.86Z" transform="translate(13.847 22.014) rotate(90)" fill="#242424"/>
        <rect id="사각형_148177" data-name="사각형 148177" width="1.838" height="6.128" transform="translate(47.06 12.087) rotate(90)" fill="#242424"/>
        <path id="사각형_148177_-_윤곽선" data-name="사각형 148177 - 윤곽선" d="M0,0H2.817V7.106H0ZM1.838.979H.979V6.128h.86Z" transform="translate(47.549 11.597) rotate(90)" fill="#242424"/>
        <path id="패스_83370" data-name="패스 83370" d="M998.507,652.539,997,651.786,1004.9,642h1.881Z" transform="translate(-952.097 -639.628)" fill="#242424"/>
        <path id="패스_83370_-_윤곽선" data-name="패스 83370 - 윤곽선" d="M999.018,653.394l-2.408-1.2,8.435-10.442h3.122Zm-.882-1.534.605.3,7.411-9.433h-.641Z" transform="translate(-952.47 -639.868)" fill="#242424"/>
        <path id="패스_83371" data-name="패스 83371" d="M998.507,669l-1.507.753,9.034,10.914h1.883Z" transform="translate(-952.097 -656.466)" fill="#242424"/>
        <path id="패스_83371_-_윤곽선" data-name="패스 83371 - 윤곽선" d="M999.017,668.687l10.3,12.77h-3.136l-9.574-11.566Zm8.253,11.791-8.52-10.564-.6.3,8.494,10.263Z" transform="translate(-952.473 -656.766)" fill="#242424"/>
        <path id="패스_83372" data-name="패스 83372" d="M917.844,672.689a8.845,8.845,0,1,1,8.846-8.845A8.854,8.854,0,0,1,917.844,672.689Zm0-16.184a7.339,7.339,0,1,0,7.34,7.339A7.347,7.347,0,0,0,917.844,656.506Z" transform="translate(-897.219 -647.736)" fill="#242424"/>
        <path id="패스_83372_-_윤곽선" data-name="패스 83372 - 윤곽선" d="M918.084,673.418a9.334,9.334,0,1,1,9.335-9.334A9.344,9.344,0,0,1,918.084,673.418Zm0-17.689a8.355,8.355,0,1,0,8.356,8.355A8.365,8.365,0,0,0,918.084,655.729Zm0,16.184a7.829,7.829,0,1,1,7.83-7.829A7.837,7.837,0,0,1,918.084,671.913Zm0-14.679a6.85,6.85,0,1,0,6.851,6.85A6.857,6.857,0,0,0,918.084,657.234Z" transform="translate(-897.459 -647.975)" fill="#242424"/>
        <path id="패스_83373" data-name="패스 83373" d="M940.845,654.69a8.845,8.845,0,1,1,8.845-8.845A8.856,8.856,0,0,1,940.845,654.69Zm0-16.185a7.339,7.339,0,1,0,7.339,7.341A7.348,7.348,0,0,0,940.845,638.5Z" transform="translate(-911.562 -636.511)" fill="#242424"/>
        <path id="패스_83373_-_윤곽선" data-name="패스 83373 - 윤곽선" d="M941.085,655.419a9.335,9.335,0,1,1,9.334-9.334A9.345,9.345,0,0,1,941.085,655.419Zm0-17.69a8.356,8.356,0,1,0,8.356,8.356A8.366,8.366,0,0,0,941.085,637.729Zm0,16.184a7.829,7.829,0,1,1,7.829-7.828A7.837,7.837,0,0,1,941.085,653.913Zm0-14.679a6.85,6.85,0,1,0,6.85,6.851A6.859,6.859,0,0,0,941.085,639.234Z" transform="translate(-911.802 -636.75)" fill="#242424"/>
      </g>
    </g>
    <g id="icon_webzine_look-2" data-name="icon_webzine_look" transform="translate(537.793 340.738)">
      <g id="그룹_1158-2" data-name="그룹 1158" transform="translate(0 0)">
        <rect id="사각형_148174-2" data-name="사각형 148174" width="1.838" height="22.06" transform="translate(0.49 2.282)" fill="#cc1424"/>
        <path id="사각형_148174_-_윤곽선-2" data-name="사각형 148174 - 윤곽선" d="M-.25-.25H2.567V22.788H-.25ZM1.588.729H.729V21.81h.86Z" transform="translate(0.25 2.043)" fill="#cc1424"/>
        <rect id="사각형_148175-2" data-name="사각형 148175" width="1.838" height="22.06" transform="translate(40.932 2.282)" fill="#cc1424"/>
        <path id="사각형_148175_-_윤곽선-2" data-name="사각형 148175 - 윤곽선" d="M-.25-.25H2.567V22.788H-.25ZM1.588.729H.729V21.81h.86Z" transform="translate(40.693 2.043)" fill="#cc1424"/>
        <rect id="사각형_148176-2" data-name="사각형 148176" width="1.838" height="12.868" transform="translate(13.357 22.504) rotate(90)" fill="#cc1424"/>
        <path id="사각형_148176_-_윤곽선-2" data-name="사각형 148176 - 윤곽선" d="M0,0H2.817V13.847H0ZM1.838.979H.979V12.868h.86Z" transform="translate(13.847 22.014) rotate(90)" fill="#cc1424"/>
        <rect id="사각형_148177-2" data-name="사각형 148177" width="1.838" height="6.128" transform="translate(47.06 12.087) rotate(90)" fill="#cc1424"/>
        <path id="사각형_148177_-_윤곽선-2" data-name="사각형 148177 - 윤곽선" d="M0,0H2.817V7.106H0ZM1.838.979H.979V6.128h.86Z" transform="translate(47.549 11.597) rotate(90)" fill="#cc1424"/>
        <path id="패스_83370-2" data-name="패스 83370" d="M998.507,652.539,997,651.786,1004.9,642h1.881Z" transform="translate(-952.097 -639.628)" fill="#cc1424"/>
        <path id="패스_83370_-_윤곽선-2" data-name="패스 83370 - 윤곽선" d="M999.018,653.394l-2.408-1.2,8.435-10.442h3.122Zm-.882-1.534.605.3,7.411-9.433h-.641Z" transform="translate(-952.47 -639.868)" fill="#cc1424"/>
        <path id="패스_83371-2" data-name="패스 83371" d="M998.507,669l-1.507.753,9.034,10.914h1.883Z" transform="translate(-952.097 -656.466)" fill="#cc1424"/>
        <path id="패스_83371_-_윤곽선-2" data-name="패스 83371 - 윤곽선" d="M999.017,668.687l10.3,12.77h-3.136l-9.574-11.566Zm8.253,11.791-8.52-10.564-.6.3,8.494,10.263Z" transform="translate(-952.473 -656.766)" fill="#cc1424"/>
        <path id="패스_83372-2" data-name="패스 83372" d="M917.844,672.689a8.845,8.845,0,1,1,8.846-8.845A8.854,8.854,0,0,1,917.844,672.689Zm0-16.184a7.339,7.339,0,1,0,7.34,7.339A7.347,7.347,0,0,0,917.844,656.506Z" transform="translate(-897.219 -647.736)" fill="#cc1424"/>
        <path id="패스_83372_-_윤곽선-2" data-name="패스 83372 - 윤곽선" d="M918.084,673.418a9.334,9.334,0,1,1,9.335-9.334A9.344,9.344,0,0,1,918.084,673.418Zm0-17.689a8.355,8.355,0,1,0,8.356,8.355A8.365,8.365,0,0,0,918.084,655.729Zm0,16.184a7.829,7.829,0,1,1,7.83-7.829A7.837,7.837,0,0,1,918.084,671.913Zm0-14.679a6.85,6.85,0,1,0,6.851,6.85A6.857,6.857,0,0,0,918.084,657.234Z" transform="translate(-897.459 -647.975)" fill="#cc1424"/>
        <path id="패스_83373-2" data-name="패스 83373" d="M940.845,654.69a8.845,8.845,0,1,1,8.845-8.845A8.856,8.856,0,0,1,940.845,654.69Zm0-16.185a7.339,7.339,0,1,0,7.339,7.341A7.348,7.348,0,0,0,940.845,638.5Z" transform="translate(-911.562 -636.511)" fill="#cc1424"/>
        <path id="패스_83373_-_윤곽선-2" data-name="패스 83373 - 윤곽선" d="M941.085,655.419a9.335,9.335,0,1,1,9.334-9.334A9.345,9.345,0,0,1,941.085,655.419Zm0-17.69a8.356,8.356,0,1,0,8.356,8.356A8.366,8.366,0,0,0,941.085,637.729Zm0,16.184a7.829,7.829,0,1,1,7.829-7.828A7.837,7.837,0,0,1,941.085,653.913Zm0-14.679a6.85,6.85,0,1,0,6.85,6.851A6.859,6.859,0,0,0,941.085,639.234Z" transform="translate(-911.802 -636.75)" fill="#cc1424"/>
      </g>
    </g>
  </g>
</svg>
